<svg width="244" height="38" viewBox="0 0 244 38" fill="none" xmlns="http://www.w3.org/2000/svg">
<path d="M48.6333 25.4226L43.5212 18.7906L33.9877 6.63199L31.0862 2.90149C29.7046 1.10534 27.4939 0 25.1451 0C22.7963 0 20.5857 1.10534 19.204 2.90149L16.3025 6.63199L6.76907 18.7906L1.65691 25.4226C-0.968239 28.7385 -0.415584 33.4362 2.9004 36.0613C4.28206 37.1666 5.94004 37.7193 7.59803 37.7193C9.25602 37.7193 12.0194 36.7521 13.5392 34.8178L16.4407 31.0873L24.0398 21.5539L20.033 13.1258L34.2641 31.2255L37.1656 34.956C38.6854 36.8903 40.896 37.8575 43.1067 37.8575C45.3173 37.8575 46.4227 37.3048 47.8043 36.1995C51.1203 33.5743 51.673 28.8767 49.0478 25.5607L48.6333 25.4226Z" fill="#FA6B1E"/>
<path d="M174.088 6.35538H151.567C151.152 6.35538 150.738 6.90807 151.014 7.32256L152.258 9.94771C152.258 10.224 152.534 10.3622 152.81 10.3622H161.377V30.8108C161.377 31.2253 161.653 31.5016 162.068 31.5016H165.107C165.522 31.5016 165.798 31.2253 165.798 30.8108V10.3622H174.226C174.641 10.3622 174.917 10.0859 174.917 9.67136V7.04621C174.917 6.63172 174.641 6.35538 174.226 6.35538H174.088Z" fill="#FCF9F3"/>
<path d="M241.651 6.21737C240.407 6.21737 239.302 7.18454 239.302 8.42804C239.302 9.67153 240.269 10.6387 241.651 10.6387C243.032 10.6387 243.999 9.67153 243.999 8.42804C243.999 7.18454 243.032 6.21737 241.651 6.21737ZM241.651 10.3623C240.683 10.3623 239.854 9.53337 239.854 8.56621C239.854 7.59905 240.545 6.77007 241.651 6.77007C242.756 6.77007 243.447 7.59905 243.447 8.56621C243.447 9.53337 242.756 10.3623 241.789 10.3623H241.651Z" fill="#FCF9F3"/>
<path d="M242.203 8.56622C242.48 8.56622 242.618 8.28989 242.618 8.01356C242.618 7.73723 242.618 7.59904 242.342 7.59904C242.203 7.59904 242.065 7.46091 241.513 7.46091C240.96 7.46091 240.822 7.46091 240.684 7.46091V9.67153H241.236V8.84257H241.513C241.789 8.84257 241.927 8.84254 241.927 9.11887C241.927 9.3952 241.927 9.53336 242.065 9.67153H242.618C242.618 9.67153 242.618 9.53337 242.48 9.11887C242.48 8.84254 242.342 8.70438 242.065 8.56622H242.203ZM241.651 8.42804H241.374V7.73721C241.374 7.73721 241.513 7.73721 241.651 7.73721C241.927 7.73721 242.065 7.73723 242.065 8.01356C242.065 8.28989 241.789 8.28987 241.513 8.28987L241.651 8.42804Z" fill="#FCF9F3"/>
<path d="M80.964 8.42808C80.2732 7.18459 79.0297 6.21742 77.5099 6.21742H76.819C75.2992 6.21742 74.0557 7.04642 73.3649 8.42808L62.8643 30.2583C62.7261 30.6728 62.8643 31.2255 63.417 31.2255H66.733C67.0093 31.2255 67.1474 31.0873 67.2856 30.811L69.7726 25.4225H84.4182L86.9052 30.811C86.9052 31.0873 87.1815 31.2255 87.4578 31.2255H90.7738C91.1883 31.2255 91.6028 30.6728 91.3265 30.2583L80.8258 8.42808H80.964ZM71.5688 21.8302L76.4046 11.3296C76.6809 10.6387 77.6481 10.6387 77.9244 11.3296L82.7602 21.8302H71.4306H71.5688Z" fill="#FCF9F3"/>
<path d="M114.4 6.35539H111.223C110.946 6.35539 110.808 6.49358 110.67 6.76991L101.827 25.6986C101.551 26.3894 100.584 26.3894 100.308 25.6986L91.4649 6.76991C91.4649 6.49358 91.1886 6.35539 90.9122 6.35539H87.5963C87.1818 6.35539 86.7672 6.90807 87.0436 7.32257L97.5442 29.1528C98.235 30.3963 99.4785 31.2252 100.998 31.2252H101.137C102.518 31.2252 103.9 30.3963 104.591 29.1528L115.091 7.32257C115.229 6.90807 115.091 6.35539 114.539 6.35539H114.4Z" fill="#FCF9F3"/>
<path d="M122.828 6.35538H119.788C119.407 6.35538 119.098 6.66468 119.098 7.04621V30.5344C119.098 30.916 119.407 31.2252 119.788 31.2252H122.828C123.21 31.2252 123.519 30.916 123.519 30.5344V7.04621C123.519 6.66468 123.21 6.35538 122.828 6.35538Z" fill="#FCF9F3"/>
<path d="M144.935 8.42804C144.244 7.18454 143 6.21737 141.481 6.21737H140.79C139.27 6.21737 138.026 7.04638 137.336 8.42804L126.835 30.2583C126.697 30.6728 126.835 31.2254 127.388 31.2254H130.704C130.98 31.2254 131.118 31.0873 131.256 30.8109L133.743 25.4225H148.389L150.876 30.8109C150.876 31.0873 151.152 31.2254 151.429 31.2254H154.744C155.159 31.2254 155.574 30.6728 155.297 30.2583L144.797 8.42804H144.935ZM135.539 21.8301L140.375 11.3295C140.652 10.6387 141.619 10.6387 141.895 11.3295L146.731 21.8301H135.401H135.539Z" fill="#FCF9F3"/>
<path d="M198.82 17.6852C199.511 16.5798 199.925 15.3363 199.925 13.8165C199.925 12.2967 199.511 11.0532 198.82 9.80969C198.129 8.70437 197.024 7.87538 195.78 7.18455C194.398 6.49372 192.879 6.21737 191.221 6.21737H179.615C179.2 6.21737 178.924 6.4937 178.924 6.9082V30.5346C178.924 30.9491 179.2 31.2254 179.615 31.2254H182.654C183.069 31.2254 183.345 30.9491 183.345 30.5346V21.2775H187.076L195.227 30.9491C195.227 31.0873 195.504 31.2254 195.78 31.2254H199.372C199.925 31.2254 200.201 30.5346 199.925 30.1201L192.326 21.1393C193.708 21.1393 194.951 20.7248 196.056 20.3103C197.438 19.6195 198.405 18.7905 199.096 17.6852H198.82ZM194.122 16.5798C193.293 17.2706 192.05 17.547 190.668 17.547H183.207V10.086H190.668C192.188 10.086 193.293 10.3623 194.122 11.0532C194.951 11.744 195.366 12.573 195.366 13.8165C195.366 15.06 194.951 15.889 194.122 16.5798Z" fill="#FCF9F3"/>
<path d="M209.044 6.35539H206.004C205.623 6.35539 205.313 6.66468 205.313 7.04622V30.5344C205.313 30.916 205.623 31.2252 206.004 31.2252H209.044C209.426 31.2252 209.735 30.916 209.735 30.5344V7.04622C209.735 6.66468 209.426 6.35539 209.044 6.35539Z" fill="#FCF9F3"/>
<path d="M241.652 6.21738C240.408 6.21738 239.303 7.18455 239.303 8.42804C239.303 9.67153 240.27 10.6387 241.652 10.6387C243.033 10.6387 244 9.67153 244 8.42804C244 7.18455 243.033 6.21738 241.652 6.21738ZM241.652 10.3624C240.684 10.3624 239.855 9.53338 239.855 8.56621C239.855 7.59905 240.546 6.77007 241.652 6.77007C242.757 6.77007 243.448 7.59905 243.448 8.56621C243.448 9.53338 242.757 10.3624 241.79 10.3624H241.652Z" fill="#FCF9F3"/>
<path d="M242.203 8.56622C242.48 8.56622 242.618 8.28989 242.618 8.01356C242.618 7.73723 242.618 7.59904 242.342 7.59904C242.203 7.59904 242.065 7.46091 241.513 7.46091C240.96 7.46091 240.822 7.46091 240.684 7.46091V9.67153H241.236V8.84257H241.513C241.789 8.84257 241.927 8.84254 241.927 9.11887C241.927 9.3952 241.927 9.53336 242.065 9.67153H242.618C242.618 9.67153 242.618 9.53337 242.48 9.11887C242.48 8.84254 242.342 8.70438 242.065 8.56622H242.203ZM241.651 8.42804H241.374V7.73721C241.374 7.73721 241.513 7.73721 241.651 7.73721C241.927 7.73721 242.065 7.73723 242.065 8.01356C242.065 8.28989 241.789 8.28987 241.513 8.28987L241.651 8.42804Z" fill="#FCF9F3"/>
<path d="M229.493 18.7905L238.474 7.32277C238.75 6.90828 238.474 6.21742 237.921 6.21742H234.329C234.19 6.21742 233.914 6.21744 233.776 6.49377L226.729 15.3364L219.683 6.49377C219.683 6.35561 219.269 6.21742 219.13 6.21742H215.538C214.985 6.21742 214.709 6.90828 214.985 7.32277L223.966 18.7905L214.985 30.2583C214.709 30.6728 214.985 31.3636 215.538 31.3636H219.13C219.269 31.3636 219.545 31.3636 219.683 31.0873L226.729 22.2447L233.776 31.0873C233.776 31.2254 234.19 31.3636 234.329 31.3636H237.921C238.474 31.3636 238.75 30.6728 238.474 30.2583L229.493 18.7905Z" fill="#FCF9F3"/>
</svg>
